<svg width="32" height="32" viewBox="0 0 32 32" fill="none" xmlns="http://www.w3.org/2000/svg">
<rect width="32" height="32" rx="16" fill="#316D93"/>
<path d="M27.6403 14.8589C25.9358 13.5595 26.0383 12.5799 25.1889 12.4039C25.0438 12.3767 24.8948 12.3767 24.7496 12.4039C24.8679 12.322 24.9735 12.2232 25.063 12.1106C25.5843 11.3949 24.8228 10.8083 25.1509 8.83725C25.3383 7.72268 25.599 7.20939 25.2563 6.89848C24.9136 6.58758 24.4392 6.85742 23.4258 6.99527C21.3025 7.28858 20.6845 6.52011 19.9582 6.99527C19.8168 7.09287 19.6971 7.2187 19.6067 7.36484C19.6448 7.19048 19.6517 7.01074 19.6272 6.83395C19.4896 5.95403 18.5348 6.08015 17.372 4.44936C16.716 3.52837 16.5373 2.98281 16.0746 3.00041C15.6119 3.01801 15.4654 3.55183 14.8445 4.37016C13.5441 6.08015 12.563 5.98043 12.3843 6.83395C12.3573 6.97935 12.3573 7.12852 12.3843 7.27392C12.2982 7.15442 12.1945 7.04862 12.0768 6.96008C11.3593 6.43506 10.7735 7.20059 8.79953 6.87209C7.68367 6.68437 7.17113 6.42332 6.86068 6.76649C6.55023 7.10966 6.81968 7.58776 6.95733 8.60554C7.25021 10.7379 6.47994 11.3597 6.95733 12.09C7.04058 12.213 7.14583 12.3194 7.26778 12.4039C7.12164 12.3765 6.97168 12.3765 6.82554 12.4039C5.97326 12.5828 6.07577 13.5771 4.36537 14.8677C3.5541 15.4719 3.02106 15.6332 3.00056 16.082C2.98006 16.5307 3.52481 16.7243 4.43273 17.3813C6.06113 18.5546 5.93519 19.5019 6.81382 19.6398C6.98328 19.6641 7.15565 19.6592 7.32343 19.6251C7.19911 19.71 7.09181 19.8174 7.00712 19.9419C6.53266 20.6693 7.3 21.2911 7.00712 23.4147C6.86947 24.4295 6.61174 24.9164 6.91047 25.2479C7.20921 25.5793 7.73346 25.33 8.84639 25.1423C10.8145 24.8138 11.4003 25.5764 12.1149 25.0543C12.2274 24.9646 12.3261 24.8589 12.4078 24.7404C12.3806 24.8858 12.3806 25.035 12.4078 25.1804C12.5835 26.031 13.5617 25.9313 14.8592 27.6354C15.4801 28.4508 15.6382 28.9758 16.0863 28.9993C16.5344 29.0227 16.7248 28.4743 17.3808 27.5562C18.5523 25.9313 19.4925 26.0545 19.6301 25.1804C19.6522 25.0346 19.6522 24.8863 19.6301 24.7404C19.7182 24.8627 19.8285 24.9672 19.9552 25.0484C20.6816 25.5236 21.3025 24.7551 23.4229 25.0484C24.4362 25.1863 24.9224 25.4444 25.2534 25.1452C25.5843 24.846 25.3354 24.321 25.1479 23.2064C24.8199 21.2354 25.5814 20.6488 25.0601 19.9331C24.9715 19.8207 24.8669 19.7219 24.7496 19.6398C24.8943 19.6616 25.0414 19.6616 25.186 19.6398C26.0646 19.5019 25.9358 18.5487 27.5583 17.3872C28.475 16.7302 29.0227 16.5542 28.9993 16.0908C28.9758 15.6273 28.4487 15.4778 27.6403 14.8589ZM22.1459 17.3344C22.4801 18.088 23.019 18.7323 23.7011 19.194C22.9866 19.0554 22.2489 19.0967 21.5543 19.3142C22.433 19.7483 22.802 21.8367 22.4535 22.1857C22.0405 22.5993 19.8732 22.3734 19.4251 21.4231C19.1739 22.1789 19.1175 22.9861 19.2611 23.7696C18.8372 23.1093 18.2446 22.5746 17.5448 22.2209C17.8787 23.2123 16.5139 24.89 15.934 24.89C15.4537 24.89 14.2822 23.227 14.5253 22.2854C13.8514 22.6416 13.2736 23.1559 12.8412 23.7843C13.0146 22.9828 12.9608 22.1487 12.686 21.3762C12.2936 22.3676 10.0501 22.6081 9.63423 22.1887C9.29449 21.8484 9.63423 19.8657 10.4631 19.3553C9.73182 19.1424 8.95978 19.1112 8.21378 19.2644C8.92834 18.8106 9.49685 18.1597 9.85096 17.3901C8.87861 17.8536 7.09205 16.4163 7.09205 15.818C7.09205 15.3399 8.72924 14.1813 9.6723 14.4013C9.30484 13.7394 8.78343 13.176 8.15227 12.7588C8.9891 12.9303 9.85676 12.8704 10.6622 12.5857C9.62252 12.2602 9.36478 9.94596 9.7836 9.50893C10.1409 9.15109 12.3433 9.55586 12.686 10.4915C12.9176 9.75774 12.9529 8.97597 12.7885 8.22424C13.2524 8.89894 13.8831 9.44162 14.619 9.7993C14.0625 8.93404 15.4039 6.96008 15.9282 6.96008C16.5461 6.96008 18.0574 8.87245 17.4453 9.81983C18.2024 9.4533 18.838 8.87588 19.2758 8.15678C19.1117 8.93524 19.148 9.74268 19.3812 10.5032C19.7034 9.55586 21.9292 9.14523 22.2895 9.50599C22.7376 9.95476 22.43 12.4889 21.2615 12.6151C22.0648 12.9298 22.9433 12.9992 23.7861 12.8145C23.1801 13.2282 22.6788 13.7775 22.3217 14.4189C23.2501 14.1256 24.9781 15.3223 24.9781 15.8151C24.9986 16.431 23.0919 17.9445 22.1459 17.3344Z" fill="white"/>
<path d="M15.937 8.46488C15.5035 8.46488 14.9793 10.1749 14.9793 11.5446C14.9793 12.4861 15.4567 14.0759 15.937 14.0759C16.4173 14.0759 17.0763 12.8205 17.0763 11.5446C17.0733 10.3303 16.3001 8.46488 15.937 8.46488Z" fill="white"/>
<path d="M15.937 17.4959C15.4596 17.4959 14.9793 19.0856 14.9793 20.0271C14.9793 21.3969 15.5035 23.1068 15.937 23.1068C16.3001 23.1068 17.0763 21.2414 17.0763 20.0271C17.0733 18.7483 16.4144 17.4959 15.937 17.4959Z" fill="white"/>
<path d="M20.2481 14.7358C19.308 14.7358 17.7206 15.2139 17.7206 15.6949C17.7206 16.1759 18.9887 16.8329 20.2481 16.8329C21.4577 16.8329 23.3233 16.0586 23.3233 15.692C23.338 15.2608 21.6276 14.7358 20.2481 14.7358Z" fill="white"/>
<path d="M14.3203 15.692C14.3203 15.2139 12.7329 14.7329 11.7928 14.7329C10.425 14.7329 8.71754 15.2579 8.71754 15.692C8.71754 16.0557 10.5802 16.833 11.7928 16.833C13.0668 16.833 14.3203 16.1731 14.3203 15.692Z" fill="white"/>
<path d="M19.7619 13.5273C20.6171 12.6709 21.3874 10.8025 21.1297 10.5444C20.8368 10.2511 19.2465 11.0753 18.28 12.0432C17.6152 12.709 16.8302 14.1726 17.17 14.5099C17.5097 14.8472 18.8599 14.4307 19.7619 13.5273Z" fill="white"/>
<path d="M12.2906 18.0415C11.3242 19.0094 10.4865 20.5903 10.794 20.8953C11.0518 21.1535 12.9174 20.3821 13.7726 19.5256C14.6747 18.6222 15.0935 17.2671 14.7537 16.9298C14.414 16.5925 12.9555 17.3756 12.2906 18.0415Z" fill="white"/>
<path d="M17.2988 16.9297C16.962 17.267 17.3779 18.6221 18.28 19.5254C19.1352 20.3819 21.0008 21.1533 21.2585 20.8952C21.5514 20.6019 20.7284 19.0092 19.7619 18.0413C19.0971 17.3755 17.6386 16.5953 17.2988 16.9297Z" fill="white"/>
<path d="M10.9229 10.5444C10.6652 10.8025 11.4354 12.6709 12.2906 13.5273C13.1927 14.4307 14.5458 14.8502 14.8826 14.5099C15.2194 14.1697 14.4374 12.709 13.7726 12.0432C12.8061 11.0753 11.2275 10.2364 10.9229 10.5444Z" fill="white"/>
</svg>
