<svg width="13" height="13" viewBox="0 0 13 13" fill="none" xmlns="http://www.w3.org/2000/svg">
<path d="M6.49996 11.5298L6.58996 8.99488L8.41992 7.19491H9.5899V8.30489L10.9549 8.51489C11.0649 8.23489 11.1525 7.9449 11.2177 7.64491C11.2833 7.34491 11.3157 7.03492 11.3149 6.71492C11.3149 5.82494 11.0925 5.01236 10.6477 4.27717C10.2212 3.56106 9.61982 2.96503 8.89991 2.54501V4.31497H7.09995V6.11493H5.89997V7.9149H4.68499L3.50002 6.11493H2.90003V6.71492L1.83505 7.8999C2.09504 8.93988 2.65763 9.80486 3.52282 10.4948C4.388 11.1848 5.38038 11.5298 6.49996 11.5298ZM8.89991 7.9149H7.09995V6.71492H8.89991V7.9149ZM8.89991 4.31497H10.1149L9.5149 6.11493H8.28492L8.89991 4.31497ZM6.49996 12.7148C5.69568 12.7206 4.89894 12.5596 4.16 12.242C3.4491 11.9399 2.80251 11.5047 2.25504 10.9598C1.71505 10.4199 1.28766 9.78486 0.972866 9.05488C0.656924 8.31543 0.496011 7.51903 0.500075 6.71492C0.500075 5.88494 0.657672 5.10496 0.972866 4.37497C1.27494 3.66407 1.71015 3.01748 2.25504 2.47001C2.79503 1.93002 3.43002 1.50263 4.16 1.18783C4.89945 0.87189 5.69585 0.710977 6.49996 0.715041C7.32954 0.715041 8.10953 0.872638 8.83991 1.18783C9.55081 1.48991 10.1974 1.92511 10.7449 2.47001C11.2849 3.01 11.7125 3.64498 12.0276 4.37497C12.345 5.11395 12.5058 5.91069 12.4998 6.71492C12.5056 7.5192 12.3446 8.31594 12.027 9.05488C11.725 9.76578 11.2898 10.4124 10.7449 10.9598C10.2049 11.4998 9.5699 11.9274 8.83991 12.2426C8.10093 12.56 7.30419 12.7208 6.49996 12.7148Z" fill="black" fill-opacity="0.5"/>
</svg>
