<svg aria-hidden="true" style="position: absolute; width: 0; height: 0; overflow: hidden;" version="1.1" xmlns="http://www.w3.org/2000/svg" xmlns:xlink="http://www.w3.org/1999/xlink">
<defs>
<symbol id="icon-globus" viewBox="0 0 32 32">
<path d="M16 0.762c8.416 0 15.238 6.822 15.238 15.238s-6.822 15.238-15.238 15.238c-8.416 0-15.238-6.822-15.238-15.238s6.822-15.238 15.238-15.238zM22.102 17.337c-0.526-0.799-0.906-1.376-2.35-1.147-2.728 0.433-3.031 0.911-3.161 1.696l-0.037 0.239-0.037 0.252c-0.149 1.041-0.143 1.435 0.335 1.937 1.928 2.023 3.083 3.481 3.433 4.333 0.171 0.417 0.61 1.677 0.308 2.923 1.865-0.741 3.508-1.919 4.803-3.408 0.168-0.57 0.289-1.279 0.289-2.14v-0.159c0-1.406 0-2.047-0.994-2.615-0.419-0.238-0.732-0.382-0.983-0.495-0.56-0.254-0.93-0.422-1.43-1.153-0.060-0.087-0.118-0.174-0.176-0.262zM16 3.556c-3.531 0-6.719 1.471-8.984 3.833 0.27 0.187 0.505 0.45 0.666 0.813 0.311 0.697 0.311 1.415 0.311 2.050-0.001 0.501-0.001 0.975 0.159 1.319 0.22 0.47 1.168 0.669 2.005 0.845 0.299 0.063 0.607 0.127 0.888 0.205 0.771 0.214 1.368 0.906 1.846 1.462 0.198 0.231 0.491 0.572 0.638 0.656 0.077-0.055 0.323-0.321 0.444-0.759 0.093-0.333 0.066-0.631-0.070-0.791-0.852-1.005-0.806-2.943-0.542-3.656 0.415-1.126 1.71-1.043 2.658-0.981 0.353 0.023 0.687 0.045 0.935 0.013 0.949-0.119 1.24-1.561 1.447-1.843 0.445-0.61 1.807-1.528 2.653-2.096-1.544-0.687-3.254-1.069-5.053-1.069z"></path>
</symbol>
<symbol id="icon-youtube" viewBox="0 0 47 32">
<path d="M45.668 6.964c0 0-0.441-3.115-1.8-4.482-1.721-1.8-3.644-1.809-4.526-1.915-6.318-0.459-15.803-0.459-15.803-0.459h-0.018c0 0-9.485 0-15.803 0.459-0.882 0.106-2.806 0.115-4.526 1.915-1.359 1.368-1.791 4.482-1.791 4.482s-0.459 3.662-0.459 7.315v3.424c0 3.653 0.45 7.315 0.45 7.315s0.441 3.115 1.791 4.482c1.721 1.8 3.979 1.738 4.985 1.932 3.618 0.344 15.362 0.45 15.362 0.45s9.494-0.018 15.812-0.468c0.882-0.106 2.806-0.115 4.526-1.915 1.359-1.368 1.8-4.482 1.8-4.482s0.45-3.653 0.45-7.315v-3.424c0-3.653-0.45-7.315-0.45-7.315zM18.862 21.858v-12.697l12.203 6.371-12.203 6.326z"></path>
</symbol>
<symbol id="icon-whatsapp" viewBox="0 0 32 32">
<path d="M0.858 30.909c-0.072 0.301 0.018 0.62 0.248 0.838 0.17 0.164 0.395 0.253 0.628 0.253 0.077 0 0.153-0.009 0.225-0.026l7.311-1.875c2.117 0.971 4.376 1.463 6.731 1.463 8.821 0 15.998-7.078 15.998-15.781 0-8.701-7.181-15.781-16.002-15.781s-15.998 7.080-15.998 15.781c0 3.006 0.853 5.913 2.477 8.436l-1.619 6.692zM8.889 8.755l1.159-1.086c0.441-0.412 1.137-0.395 1.555 0.040l2.61 2.713c0.418 0.435 0.4 1.122-0.040 1.534l-1.141 1.074c0 0-1.51 0.895 1.654 3.91l0.13 0.137c2.889 3.271 3.874 1.83 3.874 1.83l1.141-1.074c0.441-0.412 1.137-0.395 1.555 0.040l2.566 2.665c0.418 0.435 0.4 1.122-0.040 1.534l-1.158 1.086c-0.885 0.829-2.126 1.21-3.321 0.966-1.622-0.327-4.050-1.463-7.308-4.66 0.063 0.071 0.126 0.137 0.19 0.213l-0.395-0.409c0.067 0.071 0.135 0.133 0.202 0.199-3.068-3.369-4.094-5.82-4.341-7.434-0.176-1.2 0.225-2.45 1.11-3.279z"></path>
</symbol>
<symbol id="icon-instagram" viewBox="0 0 32 32">
<path d="M0.762 9.176v13.647c0 4.64 3.775 8.414 8.415 8.414h13.647c4.64 0 8.414-3.775 8.414-8.414v-13.647c0-4.64-3.775-8.415-8.414-8.415h-13.647c-4.64 0-8.415 3.775-8.415 8.415zM9.949 16c0 3.336 2.714 6.051 6.051 6.051s6.051-2.715 6.051-6.051-2.715-6.051-6.051-6.051c-3.336 0-6.051 2.714-6.051 6.051zM7.988 16c0-4.418 3.594-8.012 8.012-8.012s8.012 3.594 8.012 8.012c0 4.418-3.594 8.012-8.012 8.012s-8.012-3.594-8.012-8.012zM25.76 3.994c1.161 0 2.103 0.942 2.103 2.103s-0.941 2.103-2.103 2.103-2.103-0.942-2.103-2.103c0-1.161 0.942-2.103 2.103-2.103z"></path>
</symbol>
</defs>
</svg>
